# xmcd
#
# Track frame offsets:
#	150
#	15776
#	33015
#	46959
#	64175
#	80393
#	95491
#	108795
#	123118
#	136803
#	150542
#	165240
#	180525
#	195937
#	211011
#
# Disc length: 3081 seconds
#
# Revision: 1
# Processed by: cddbd v1.5.2PL0 Copyright (c) Steve Scherf et al.
# Submitted via: audiograbber 1.83.01
#
DISCID=9e0c070f
DTITLE=Col Millington - Rock 'N' Blues
DYEAR=2016
DGENRE=Country
TTITLE0=Baby It Was You
TTITLE1=Some Say
TTITLE2=Ooowee
TTITLE3=Bad Luck
TTITLE4=I Simply Love Women
TTITLE5=Oh That Girl
TTITLE6=Rock-A-Billy, Milly
TTITLE7=Say That You Love Me
TTITLE8=We're Good Together
TTITLE9=Things Ain't What They Seem
TTITLE10=You Did It To Me Baby
TTITLE11=She's My Girl
TTITLE12=Women
TTITLE13=I'm Not In It For The Money
TTITLE14=Pushin' 60
EXTD=
EXTT0=
EXTT1=
EXTT2=
EXTT3=
EXTT4=
EXTT5=
EXTT6=
EXTT7=
EXTT8=
EXTT9=
EXTT10=
EXTT11=
EXTT12=
EXTT13=
EXTT14=
PLAYORDER=
